<svg width="25" height="24" viewBox="0 0 25 24" fill="none" xmlns="http://www.w3.org/2000/svg">
<path opacity="0.4" fill-rule="evenodd" clip-rule="evenodd" d="M6.58496 20.5885C6.58496 19.7485 7.26496 19.0685 8.10496 19.0685C8.93496 19.0685 9.61496 19.7485 9.61496 20.5885C9.61496 21.4185 8.93496 22.0985 8.10496 22.0985C7.26496 22.0985 6.58496 21.4185 6.58496 20.5885ZM17.835 20.5885C17.835 19.7485 18.515 19.0685 19.355 19.0685C20.185 19.0685 20.865 19.7485 20.865 20.5885C20.865 21.4185 20.185 22.0985 19.355 22.0985C18.515 22.0985 17.835 21.4185 17.835 20.5885Z" fill="#E21B1B"/>
<path fill-rule="evenodd" clip-rule="evenodd" d="M20.8655 6.34896C21.4755 6.34896 21.8755 6.55896 22.2755 7.01896C22.6755 7.47896 22.7455 8.13896 22.6555 8.73796L21.7055 15.298C21.5255 16.559 20.4455 17.488 19.1755 17.488H8.26555C6.93555 17.488 5.83555 16.468 5.72555 15.149L4.80555 4.24796L3.29555 3.98796C2.89555 3.91796 2.61555 3.52796 2.68555 3.12796C2.75555 2.71796 3.14555 2.44796 3.55555 2.50796L5.94055 2.86796C6.28055 2.92896 6.53055 3.20796 6.56055 3.54796L6.75055 5.78796C6.78055 6.10896 7.04055 6.34896 7.36055 6.34896H20.8655ZM14.8055 11.548H17.5755C17.9955 11.548 18.3255 11.208 18.3255 10.798C18.3255 10.378 17.9955 10.048 17.5755 10.048H14.8055C14.3855 10.048 14.0555 10.378 14.0555 10.798C14.0555 11.208 14.3855 11.548 14.8055 11.548Z" fill="#E21B1B"/>
</svg>
