<svg width="21" height="20" viewBox="0 0 21 20" fill="none" xmlns="http://www.w3.org/2000/svg">
<path opacity="0.4" d="M10.695 0C4.88505 0 0.675049 4.74 0.675049 10C0.675049 11.68 1.16505 13.41 2.02505 14.99C2.18505 15.25 2.20505 15.58 2.09505 15.89L1.42505 18.13C1.27505 18.67 1.73505 19.07 2.24505 18.91L4.26505 18.31C4.81505 18.13 5.24505 18.36 5.75605 18.67C7.21605 19.53 9.03505 19.97 10.675 19.97C15.635 19.97 20.675 16.14 20.675 9.97C20.675 4.65 16.375 0 10.695 0Z" fill="#E21B1B"/>
<path fill-rule="evenodd" clip-rule="evenodd" d="M10.6555 11.2901C9.94554 11.2801 9.37554 10.7101 9.37554 10.0001C9.37554 9.30011 9.95554 8.72011 10.6555 8.73011C11.3655 8.73011 11.9355 9.30011 11.9355 10.0101C11.9355 10.7101 11.3655 11.2901 10.6555 11.2901ZM6.04514 11.2901C5.34514 11.2901 4.76514 10.7101 4.76514 10.0101C4.76514 9.30011 5.33514 8.73011 6.04514 8.73011C6.75514 8.73011 7.32514 9.30011 7.32514 10.0101C7.32514 10.7101 6.75514 11.2801 6.04514 11.2901ZM13.9853 10.0101C13.9853 10.7101 14.5553 11.2901 15.2653 11.2901C15.9753 11.2901 16.5453 10.7101 16.5453 10.0101C16.5453 9.30011 15.9753 8.73011 15.2653 8.73011C14.5553 8.73011 13.9853 9.30011 13.9853 10.0101Z" fill="white"/>
</svg>
