<svg width="25" height="24" viewBox="0 0 25 24" fill="none" xmlns="http://www.w3.org/2000/svg">
<path d="M12.6948 2C6.88481 2 2.6748 6.74 2.6748 12C2.6748 13.68 3.1648 15.41 4.0248 16.99C4.1848 17.25 4.2048 17.58 4.0948 17.89L3.4248 20.13C3.2748 20.67 3.7348 21.07 4.2448 20.91L6.2648 20.31C6.8148 20.13 7.2448 20.36 7.7558 20.67C9.2158 21.53 11.0348 21.97 12.6748 21.97C17.6348 21.97 22.6748 18.14 22.6748 11.97C22.6748 6.65 18.3748 2 12.6948 2Z" fill="#E21B1B"/>
<path fill-rule="evenodd" clip-rule="evenodd" d="M12.6555 13.2901C11.9455 13.2801 11.3755 12.7101 11.3755 12.0001C11.3755 11.3001 11.9555 10.7201 12.6555 10.7301C13.3655 10.7301 13.9355 11.3001 13.9355 12.0101C13.9355 12.7101 13.3655 13.2901 12.6555 13.2901ZM8.04514 13.2901C7.34514 13.2901 6.76514 12.7101 6.76514 12.0101C6.76514 11.3001 7.33514 10.7301 8.04514 10.7301C8.75514 10.7301 9.32514 11.3001 9.32514 12.0101C9.32514 12.7101 8.75514 13.2801 8.04514 13.2901ZM15.9853 12.0101C15.9853 12.7101 16.5553 13.2901 17.2653 13.2901C17.9753 13.2901 18.5453 12.7101 18.5453 12.0101C18.5453 11.3001 17.9753 10.7301 17.2653 10.7301C16.5553 10.7301 15.9853 11.3001 15.9853 12.0101Z" fill="white"/>
</svg>
