<svg width="35" height="34" viewBox="0 0 35 34" fill="none" xmlns="http://www.w3.org/2000/svg">
<path d="M29.4583 5.21671C26.7237 2.46421 23.1144 0.752069 19.2527 0.37545C15.391 -0.0011681 11.5189 0.981344 8.30398 3.1536C5.08904 5.32586 2.73273 8.55173 1.64128 12.2751C0.549823 15.9984 0.791627 19.9859 2.325 23.55C2.48482 23.8813 2.53726 24.2542 2.475 24.6167L1.00833 31.6667C0.951829 31.937 0.963367 32.2171 1.04191 32.4818C1.12046 32.7466 1.26355 32.9876 1.45833 33.1834C1.61801 33.3419 1.80812 33.4664 2.01722 33.5495C2.22632 33.6326 2.45008 33.6724 2.675 33.6667H3.00833L10.1417 32.2334C10.5042 32.1898 10.8719 32.2415 11.2083 32.3834C14.7725 33.9168 18.76 34.1586 22.4833 33.0671C26.2067 31.9757 29.4325 29.6193 31.6048 26.4044C33.777 23.1895 34.7595 19.3174 34.3829 15.4557C34.0063 11.594 32.2942 7.98469 29.5417 5.25005L29.4583 5.21671ZM11.0083 18.6667C10.6787 18.6667 10.3565 18.569 10.0824 18.3858C9.8083 18.2027 9.59468 17.9424 9.46853 17.6379C9.34239 17.3333 9.30938 16.9982 9.37369 16.6749C9.438 16.3516 9.59674 16.0546 9.82982 15.8215C10.0629 15.5884 10.3599 15.4297 10.6832 15.3654C11.0065 15.3011 11.3416 15.3341 11.6461 15.4602C11.9507 15.5864 12.211 15.8 12.3941 16.0741C12.5773 16.3482 12.675 16.6704 12.675 17C12.675 17.4421 12.4994 17.866 12.1868 18.1786C11.8743 18.4911 11.4504 18.6667 11.0083 18.6667ZM17.675 18.6667C17.3454 18.6667 17.0231 18.569 16.749 18.3858C16.475 18.2027 16.2613 17.9424 16.1352 17.6379C16.0091 17.3333 15.976 16.9982 16.0404 16.6749C16.1047 16.3516 16.2634 16.0546 16.4965 15.8215C16.7296 15.5884 17.0265 15.4297 17.3498 15.3654C17.6732 15.3011 18.0083 15.3341 18.3128 15.4602C18.6173 15.5864 18.8776 15.8 19.0608 16.0741C19.2439 16.3482 19.3417 16.6704 19.3417 17C19.3417 17.4421 19.1661 17.866 18.8535 18.1786C18.5409 18.4911 18.117 18.6667 17.675 18.6667ZM24.3417 18.6667C24.012 18.6667 23.6898 18.569 23.4157 18.3858C23.1416 18.2027 22.928 17.9424 22.8019 17.6379C22.6757 17.3333 22.6427 16.9982 22.707 16.6749C22.7713 16.3516 22.9301 16.0546 23.1632 15.8215C23.3962 15.5884 23.6932 15.4297 24.0165 15.3654C24.3398 15.3011 24.6749 15.3341 24.9795 15.4602C25.284 15.5864 25.5443 15.8 25.7274 16.0741C25.9106 16.3482 26.0083 16.6704 26.0083 17C26.0083 17.4421 25.8327 17.866 25.5202 18.1786C25.2076 18.4911 24.7837 18.6667 24.3417 18.6667Z" fill="#E21B1B"/>
</svg>
