<svg width="41" height="40" viewBox="0 0 41 40" fill="none" xmlns="http://www.w3.org/2000/svg">
<path d="M34.0083 6.66666H7.34163C5.5083 6.66666 4.02497 8.16666 4.02497 9.99999L4.0083 30C4.0083 31.8333 5.5083 33.3333 7.34163 33.3333H34.0083C35.8416 33.3333 37.3416 31.8333 37.3416 30V9.99999C37.3416 8.16666 35.8416 6.66666 34.0083 6.66666ZM33.3416 13.75L21.5583 21.1167C21.025 21.45 20.325 21.45 19.7916 21.1167L8.0083 13.75C7.84118 13.6562 7.69483 13.5294 7.57812 13.3774C7.4614 13.2254 7.37674 13.0513 7.32926 12.8656C7.28178 12.6799 7.27247 12.4865 7.3019 12.2972C7.33132 12.1078 7.39886 11.9263 7.50044 11.7638C7.60201 11.6013 7.73551 11.4611 7.89284 11.3516C8.05018 11.2422 8.22809 11.1658 8.41579 11.1272C8.6035 11.0885 8.79711 11.0883 8.98489 11.1266C9.17268 11.1649 9.35074 11.2409 9.5083 11.35L20.675 18.3333L31.8416 11.35C31.9992 11.2409 32.1773 11.1649 32.365 11.1266C32.5528 11.0883 32.7464 11.0885 32.9341 11.1272C33.1219 11.1658 33.2998 11.2422 33.4571 11.3516C33.6144 11.4611 33.7479 11.6013 33.8495 11.7638C33.9511 11.9263 34.0186 12.1078 34.048 12.2972C34.0775 12.4865 34.0682 12.6799 34.0207 12.8656C33.9732 13.0513 33.8885 13.2254 33.7718 13.3774C33.6551 13.5294 33.5088 13.6562 33.3416 13.75Z" fill="#E21B1B"/>
</svg>
