<svg width="50" height="50" viewBox="0 0 50 50" fill="none" xmlns="http://www.w3.org/2000/svg">
<rect opacity="0.1" x="0.674805" width="49" height="50" rx="15" fill="#E21B1B"/>
<path opacity="0.4" d="M23.7581 29.9579H17.1826C16.3504 29.9579 15.6748 30.6217 15.6748 31.4393C15.6748 32.2558 16.3504 32.9206 17.1826 32.9206H23.7581C24.5903 32.9206 25.2659 32.2558 25.2659 31.4393C25.2659 30.6217 24.5903 29.9579 23.7581 29.9579Z" fill="#E21B1B"/>
<path opacity="0.4" d="M35.6749 20.3786C35.6749 19.562 34.9994 18.8983 34.1682 18.8983H27.5927C26.7605 18.8983 26.085 19.562 26.085 20.3786C26.085 21.1962 26.7605 21.8599 27.5927 21.8599H34.1682C34.9994 21.8599 35.6749 21.1962 35.6749 20.3786Z" fill="#E21B1B"/>
<path d="M22.5525 20.3786C22.5525 22.2452 21.0137 23.7582 19.1137 23.7582C17.2148 23.7582 15.6748 22.2452 15.6748 20.3786C15.6748 18.513 17.2148 17 19.1137 17C21.0137 17 22.5525 18.513 22.5525 20.3786Z" fill="#E21B1B"/>
<path d="M35.6746 31.3992C35.6746 33.2648 34.1357 34.7778 32.2357 34.7778C30.3369 34.7778 28.7969 33.2648 28.7969 31.3992C28.7969 29.5326 30.3369 28.0196 32.2357 28.0196C34.1357 28.0196 35.6746 29.5326 35.6746 31.3992Z" fill="#E21B1B"/>
</svg>
