<svg width="20" height="20" viewBox="0 0 20 20" fill="none" xmlns="http://www.w3.org/2000/svg">
<path d="M6.81878 18.7821V15.7152C6.81877 14.9381 7.45072 14.3067 8.23348 14.3018H11.1077C11.8939 14.3018 12.5313 14.9346 12.5313 15.7152V18.7732C12.5313 19.4473 13.0791 19.9951 13.758 20H15.7189C16.6347 20.0023 17.5138 19.6428 18.1622 19.0007C18.8106 18.3586 19.1751 17.4868 19.175 16.5775V7.86585C19.175 7.13139 18.8471 6.43471 18.2797 5.9635L11.618 0.674268C10.4536 -0.250877 8.79042 -0.220992 7.66044 0.745384L1.14206 5.9635C0.547789 6.42082 0.192601 7.11956 0.175049 7.86585V16.5686C0.175049 18.4637 1.72243 20 3.63122 20H5.54734C5.87422 20.0023 6.18854 19.8751 6.42052 19.6464C6.65251 19.4178 6.78297 19.1067 6.78297 18.7821H6.81878Z" fill="#E21B1B"/>
</svg>
