<svg width="20" height="20" viewBox="0 0 20 20" fill="none" xmlns="http://www.w3.org/2000/svg">
<path opacity="0.3" d="M6.81854 18.7821V15.7152C6.81852 14.9381 7.45048 14.3067 8.23324 14.3018H11.1074C11.8937 14.3018 12.5311 14.9346 12.5311 15.7152V18.7732C12.5311 19.4473 13.0788 19.9951 13.7577 20H15.7186C16.6344 20.0023 17.5136 19.6428 18.162 19.0007C18.8104 18.3586 19.1748 17.4868 19.1748 16.5775V7.86585C19.1748 7.13139 18.8469 6.43471 18.2794 5.9635L11.6178 0.674268C10.4533 -0.250877 8.79018 -0.220992 7.6602 0.745384L1.14182 5.9635C0.547545 6.42082 0.192357 7.11956 0.174805 7.86585V16.5686C0.174805 18.4637 1.72219 20 3.63098 20H5.54709C5.87398 20.0023 6.18829 19.8751 6.42028 19.6464C6.65226 19.4178 6.78273 19.1067 6.78272 18.7821H6.81854Z" fill="#E21B1B"/>
</svg>
