<svg width="21" height="24" viewBox="0 0 21 24" fill="none" xmlns="http://www.w3.org/2000/svg">
<path d="M16.6748 9C16.6748 7.4087 16.0427 5.88258 14.9174 4.75736C13.7922 3.63214 12.2661 3 10.6748 3C9.08351 3 7.55738 3.63214 6.43216 4.75736C5.30695 5.88258 4.6748 7.4087 4.6748 9C4.6748 16 1.6748 18 1.6748 18H19.6748C19.6748 18 16.6748 16 16.6748 9Z" stroke="#E21B1B" stroke-width="2" stroke-linecap="round" stroke-linejoin="round"/>
<path d="M12.4043 22C12.2285 22.3031 11.9762 22.5547 11.6726 22.7295C11.3689 22.9044 11.0247 22.9965 10.6743 22.9965C10.324 22.9965 9.97973 22.9044 9.67611 22.7295C9.37249 22.5547 9.12015 22.3031 8.94434 22" stroke="#E21B1B" stroke-width="2" stroke-linecap="round" stroke-linejoin="round"/>
<circle cx="16.6748" cy="4" r="3.5" fill="#53E88B" stroke="white"/>
</svg>
