<svg width="89" height="24" viewBox="0 0 89 24" fill="none" xmlns="http://www.w3.org/2000/svg">
<path d="M0.875 23.2478V0.404053H5.71875V19.2478H14.9844V23.2478H0.875ZM39.7031 11.7947C39.7031 15.5759 38.7656 18.4822 36.8906 20.5134C35.0156 22.5447 32.3281 23.5603 28.8281 23.5603C25.3281 23.5603 22.6406 22.5447 20.7656 20.5134C18.8906 18.4822 17.9531 15.5655 17.9531 11.7634C17.9531 7.96134 18.8906 5.0603 20.7656 3.0603C22.651 1.04989 25.349 0.0446777 28.8594 0.0446777C32.3698 0.0446777 35.0521 1.05509 36.9062 3.07593C38.7708 5.09676 39.7031 8.00301 39.7031 11.7947ZM23.0312 11.7947C23.0312 14.3468 23.5156 16.2686 24.4844 17.5603C25.4531 18.852 26.901 19.4978 28.8281 19.4978C32.6927 19.4978 34.625 16.9301 34.625 11.7947C34.625 6.64884 32.7031 4.07593 28.8594 4.07593C26.9323 4.07593 25.4792 4.72697 24.5 6.02905C23.5208 7.32072 23.0312 9.24259 23.0312 11.7947ZM53.1094 10.4197H62.1719V22.2634C60.7031 22.7426 59.3177 23.0759 58.0156 23.2634C56.724 23.4613 55.401 23.5603 54.0469 23.5603C50.599 23.5603 47.9635 22.5499 46.1406 20.5291C44.3281 18.4978 43.4219 15.5863 43.4219 11.7947C43.4219 8.10718 44.474 5.23218 46.5781 3.16968C48.6927 1.10718 51.6198 0.0759277 55.3594 0.0759277C57.7031 0.0759277 59.9635 0.544678 62.1406 1.48218L60.5312 5.35718C58.8646 4.52384 57.1302 4.10718 55.3281 4.10718C53.2344 4.10718 51.5573 4.8103 50.2969 6.21655C49.0365 7.6228 48.4062 9.51343 48.4062 11.8884C48.4062 14.3676 48.9115 16.2634 49.9219 17.5759C50.9427 18.878 52.4219 19.5291 54.3594 19.5291C55.3698 19.5291 56.3958 19.4249 57.4375 19.2166V14.4509H53.1094V10.4197ZM88.3594 11.7947C88.3594 15.5759 87.4219 18.4822 85.5469 20.5134C83.6719 22.5447 80.9844 23.5603 77.4844 23.5603C73.9844 23.5603 71.2969 22.5447 69.4219 20.5134C67.5469 18.4822 66.6094 15.5655 66.6094 11.7634C66.6094 7.96134 67.5469 5.0603 69.4219 3.0603C71.3073 1.04989 74.0052 0.0446777 77.5156 0.0446777C81.026 0.0446777 83.7083 1.05509 85.5625 3.07593C87.4271 5.09676 88.3594 8.00301 88.3594 11.7947ZM71.6875 11.7947C71.6875 14.3468 72.1719 16.2686 73.1406 17.5603C74.1094 18.852 75.5573 19.4978 77.4844 19.4978C81.349 19.4978 83.2812 16.9301 83.2812 11.7947C83.2812 6.64884 81.3594 4.07593 77.5156 4.07593C75.5885 4.07593 74.1354 4.72697 73.1562 6.02905C72.1771 7.32072 71.6875 9.24259 71.6875 11.7947Z" fill="white"/>
</svg>
