<svg width="25" height="24" viewBox="0 0 25 24" fill="none" xmlns="http://www.w3.org/2000/svg">
<g opacity="0.5">
<path opacity="0.4" d="M22.6748 15.9402C22.6748 18.7302 20.4348 20.9902 17.6448 21.0002H17.6348H7.7248C4.9448 21.0002 2.6748 18.7502 2.6748 15.9602V15.9502C2.6748 15.9502 2.6808 11.5242 2.6888 9.29821C2.6898 8.88021 3.1698 8.64621 3.4968 8.90621C5.8728 10.7912 10.1218 14.2282 10.1748 14.2732C10.8848 14.8422 11.7848 15.1632 12.7048 15.1632C13.6248 15.1632 14.5248 14.8422 15.2348 14.2622C15.2878 14.2272 19.4418 10.8932 21.8538 8.97721C22.1818 8.71621 22.6638 8.95021 22.6648 9.36721C22.6748 11.5762 22.6748 15.9402 22.6748 15.9402Z" fill="#E21B1B"/>
<path d="M22.1507 5.6736C21.2847 4.0416 19.5807 2.9996 17.7047 2.9996H7.72469C5.84869 2.9996 4.14469 4.0416 3.27869 5.6736C3.08469 6.0386 3.17669 6.4936 3.49969 6.7516L10.9247 12.6906C11.4447 13.1106 12.0747 13.3196 12.7047 13.3196C12.7087 13.3196 12.7117 13.3196 12.7147 13.3196C12.7177 13.3196 12.7217 13.3196 12.7247 13.3196C13.3547 13.3196 13.9847 13.1106 14.5047 12.6906L21.9297 6.7516C22.2527 6.4936 22.3447 6.0386 22.1507 5.6736Z" fill="#E21B1B"/>
</g>
</svg>
