<svg width="25" height="24" viewBox="0 0 25 24" fill="none" xmlns="http://www.w3.org/2000/svg">
<g opacity="0.5">
<path fill-rule="evenodd" clip-rule="evenodd" d="M8.4436 8.71384H16.906C19.2634 8.71384 21.1748 10.583 21.1748 12.8885V17.8253C21.1748 20.1308 19.2634 22 16.906 22H8.4436C6.08616 22 4.1748 20.1308 4.1748 17.8253V12.8885C4.1748 10.583 6.08616 8.71384 8.4436 8.71384ZM12.6697 17.3295C13.1676 17.3295 13.5639 16.9419 13.5639 16.455V14.2489C13.5639 13.7719 13.1676 13.3844 12.6697 13.3844C12.182 13.3844 11.7857 13.7719 11.7857 14.2489V16.455C11.7857 16.9419 12.182 17.3295 12.6697 17.3295Z" fill="#E21B1B"/>
<path opacity="0.4" d="M18.1978 7.39595V8.86667C17.8421 8.7673 17.4662 8.71761 17.08 8.71761H16.4195V7.39595C16.4195 5.37868 14.7429 3.73903 12.6801 3.73903C10.6174 3.73903 8.94075 5.36874 8.93059 7.37608V8.71761H8.28026C7.88396 8.71761 7.50799 8.7673 7.15234 8.87661V7.39595C7.16251 4.41476 9.63172 2 12.6598 2C15.7286 2 18.1978 4.41476 18.1978 7.39595Z" fill="url(#paint0_linear_2_11339)"/>
</g>
<defs>
<linearGradient id="paint0_linear_2_11339" x1="7.15234" y1="1.57775" x2="19.4478" y2="4.63763" gradientUnits="userSpaceOnUse">
<stop stop-color="#53E88B"/>
<stop offset="1" stop-color="#15BE77"/>
</linearGradient>
</defs>
</svg>
